{"title":"Zumbo's Just Desserts - S01E03 - Only Chocolate Dessert","uid":15645215,"size":461327458,"categoryP":"video","categoryS":"tv_shows","magnet":"?xt=urn:btih:7f9fa3506260c70e7afb3a83780bbf30b64a15f6&amp;dn=Zumbo%27s+Just+Desserts+-+S01E03+-+Only+Chocolate+Dessert&amp;tr=udp%3A%2F%2Ftracker.leechers-paradise.org%3A6969&amp;tr=udp%3A%2F%2Fzer0day.ch%3A1337&amp;tr=udp%3A%2F%2Fopen.demonii.com%3A1337&amp;tr=udp%3A%2F%2Ftracker.coppersurfer.tk%3A6969&amp;tr=udp%3A%2F%2Fexodus.desync.com%3A6969","seeders":9,"leechers":2,"uploader":"Bullrout","files":1,"time":1472047495,"description":"Zumbo's Just Desserts - S01E03 - Only Chocolate Dessert\r\n\r\nUsing chocolate, the remaining dessert makers must produce their most swoon-worthy creation. The two weakest will head straight to the Zumbo Test, where a truly monumental challenge awaits them.\r\n\r\nComplete name                            : Zumbo's Just Desserts - S01E03 - Only Chocolate Dessert.mp4\r\nFormat                                   : MPEG-4\r\nFormat profile                           : Base Media / Version 2\r\nCodec ID                                 : mp42 (mp42/isom/avc1)\r\nFile size                                : 440 MiB\r\nDuration                                 : 55mn 18s\r\nOverall bit rate mode                    : Variable\r\nOverall bit rate                         : 1 112 Kbps\r\n\r\nVideo\r\nID                                       : 2\r\nFormat                                   : AVC\r\nFormat/Info                              : Advanced Video Codec\r\nFormat profile                           :   \r\nFormat settings, CABAC                   : Yes\r\nFormat settings, ReFrames                : 3 frames\r\nCodec ID                                 : avc1\r\nCodec ID/Info                            : Advanced Video Coding\r\nDuration                                 : 55mn 18s\r\nBit rate mode                            : Variable\r\nBit rate                                 : 981 Kbps\r\nMaximum bit rate                         : 1 000 Kbps\r\nWidth                                    : 720 pixels\r\nHeight                                   : 404 pixels\r\nDisplay aspect ratio                     : 16:9\r\nOriginal display aspect ratio            : 16:9\r\nFrame rate mode                          : Constant\r\nFrame rate                               : 25.000 fps\r\nStandard                                 : PAL\r\nColor space                              : YUV\r\nChroma subsampling                       : 4:2:0\r\nBit depth                                : 8 bits\r\nScan type                                : Progressive\r\nBits/(Pixel*Frame)                       : 0.135\r\nStream size                              : 388 MiB (88%)\r\nWriting library                          : x264 core 112\r\nColor range                              : Limited\r\nColor primaries                          : BT.601 PAL\r\nTransfer characteristics                 : BT.470 System B, BT.470 System G\r\nMatrix coefficients                      : BT.601\r\n\r\nAudio\r\nID                                       : 1\r\nFormat                                   : AAC\r\nFormat/Info                              : Advanced Audio Codec\r\nFormat profile                           : LC\r\nCodec ID                                 : 40\r\nDuration                                 : 55mn 18s\r\nBit rate mode                            : Variable\r\nBit rate                                 : 128 Kbps\r\nMaximum bit rate                         : 576 Kbps\r\nChannel(s)                               : 2 channels\r\nChannel positions                        : Front: L R\r\nSampling rate                            : 48.0 KHz\r\nFrame rate                               : 46.875 fps (1024 spf)\r\nCompression mode                         : Lossy\r\nStream size                              : 50.6 MiB (12%)","torrent":{"xt":"urn:btih:7f9fa3506260c70e7afb3a83780bbf30b64a15f6","amp;dn":"Zumbo%27s+Just+Desserts+-+S01E03+-+Only+Chocolate+Dessert","amp;tr":["udp%3A%2F%2Ftracker.leechers-paradise.org%3A6969","udp%3A%2F%2Fzer0day.ch%3A1337","udp%3A%2F%2Fopen.demonii.com%3A1337","udp%3A%2F%2Ftracker.coppersurfer.tk%3A6969","udp%3A%2F%2Fexodus.desync.com%3A6969"],"infoHash":"7f9fa3506260c70e7afb3a83780bbf30b64a15f6","infoHashBuffer":{"type":"Buffer","data":[127,159,163,80,98,96,199,14,122,251,58,131,120,11,191,48,182,74,21,246]},"announce":[],"urlList":[]}}